<svg id="片状化_1" xmlns="http://www.w3.org/2000/svg" viewBox="0 0 400 600"><defs><style>.cls-1{fill:#6d9fbf;}.cls-2{fill:#91d4ff;}.cls-3{fill:#a7ddff;}.cls-4{fill:#addfff;}.cls-5{fill:#496a80;}.cls-6{fill:#243540;}.cls-7{fill:#d3eeff;}.cls-8{fill:#bde5ff;}</style></defs><title>画板 1</title><polygon class="cls-1" points="200 174 206 134 165 154 200 174"/><polygon class="cls-2" points="137 59 177 99 152 129 137 59"/><polygon class="cls-3" points="177 99 206 134 152 129 177 99"/><polygon class="cls-2" points="165 154 152 129 206 134 165 154"/><polygon class="cls-4" points="206 134 224 154 200 174 206 134"/><polygon class="cls-1" points="229 134 224 154 261 150 229 134"/><polygon class="cls-5" points="268 125 229 134 261 150 268 125"/><polygon class="cls-1" points="238 114 229 134 268 125 238 114"/><polygon class="cls-6" points="254 101 238 114 268 125 254 101"/><polygon class="cls-7" points="302 134 293 120 268 125 302 134"/><polygon class="cls-1" points="261 150 302 134 268 125 261 150"/><polygon class="cls-3" points="346 142 302 134 299 152 346 142"/><polygon class="cls-2" points="261 150 299 152 302 134 261 150"/><polygon class="cls-5" points="256 171 224 154 261 150 256 171"/><polygon class="cls-1" points="299 152 256 171 261 150 299 152"/><polygon class="cls-8" points="249 216 271 200 256 171 249 216"/><polygon class="cls-7" points="271 239 271 200 249 216 271 239"/><polygon class="cls-7" points="265 277 271 239 238 247 265 277"/><polygon class="cls-8" points="249 216 238 247 271 239 249 216"/><polygon class="cls-7" points="253 312 265 277 224 270 253 312"/><polygon class="cls-8" points="238 247 224 270 265 277 238 247"/><polygon class="cls-8" points="229 342 253 312 224 270 229 342"/><polygon class="cls-7" points="206 277 224 270 229 342 206 277"/><polygon class="cls-8" points="192 353 229 342 206 277 192 353"/><polygon class="cls-8" points="192 277 171 342 192 353 192 277"/><polygon class="cls-7" points="206 277 192 277 192 353 206 277"/><polygon class="cls-6" points="217 182 256 171 224 154 217 182"/><polygon class="cls-5" points="252.5 193.5 256 171 217 182 252.5 193.5"/><polygon class="cls-2" points="65 94 124 127 84 141 65 94"/><polygon class="cls-3" points="115 193 124 127 84 141 115 193"/><polygon class="cls-2" points="165 154 124 127 115 193 165 154"/><polygon class="cls-3" points="148 239 165 154 115 193 148 239"/><polygon class="cls-2" points="200 174 165 154 148 239 200 174"/><polygon class="cls-3" points="200 174 171 266 148 239 200 174"/><polygon class="cls-3" points="192 277 171 266 217 182 192 277"/><polygon class="cls-2" points="200 174 217 182 171 266 200 174"/><polygon class="cls-2" points="217 182 238 247 192 277 217 182"/><polygon class="cls-6" points="253 193 217 182 249 216 253 193"/><polygon class="cls-5" points="238 247 217 182 249 216 238 247"/><polygon class="cls-5" points="192 277 238 247 224 270 192 277"/><polygon class="cls-6" points="206 277 192 277 224 270 206 277"/><polygon class="cls-7" points="171 266 171 342 192 277 171 266"/><polygon class="cls-1" points="140 306 171 266 171 342 140 306"/><polygon class="cls-5" points="129 334 171 342 140 306 129 334"/><polygon class="cls-1" points="165 363 171 342 129 334 165 363"/><polygon class="cls-5" points="120 363 129 334 165 363 120 363"/><polygon class="cls-1" points="161 391 120 363 165 363 161 391"/><polygon class="cls-6" points="115 406 120 363 161 391 115 406"/><polygon class="cls-5" points="157 429 161 391 115 406 157 429"/><polygon class="cls-5" points="177 479 157 429 174 406 177 479"/><polygon class="cls-1" points="161 391 174 406 157 429 161 391"/><polygon class="cls-5" points="174 377 161 391 174 406 174 377"/><polygon class="cls-1" points="165 363 174 377 161 391 165 363"/><polygon class="cls-2" points="171 342 174 377 165 363 171 342"/><polygon class="cls-6" points="115 406 124 455 157 429 115 406"/><polygon class="cls-5" points="156 463 157 429 124 455 156 463"/><polygon class="cls-6" points="136 479 156 463 124 455 136 479"/><polygon class="cls-5" points="157 483 156 463 136 479 157 483"/><polygon class="cls-6" points="157 483 161 508 136 479 157 483"/><polygon class="cls-1" points="224 154 200 174 217 182 224 154"/><polygon class="cls-7" points="271 200 256 171 299 152 271 200"/><polygon class="cls-1" points="254 101 277 103 268 125 254 101"/><polygon class="cls-6" points="277 103 293 120 268 125 277 103"/><polygon class="cls-6" points="174 377 192 353 171 342 174 377"/></svg>