<svg id="片状化_1" xmlns="http://www.w3.org/2000/svg" viewBox="0 0 400 600">
  <defs>
    <style>
      .cls-1 {
        fill: #b254a1;
      }
      .cls-2 {
        fill: #863f78;
      }
      .cls-3 {
        fill: #592a50;
      }
      .cls-4 {
        fill: #e0bad9;
      }
      .cls-5 {
        fill: #c276b3;
      }
      .cls-6 {
        fill: #2d1528;
      }
      .cls-7 {
        fill: #d198c6;
      }
      .cls-8 {
        fill: #f0ddec;
      }
    </style>
  </defs>
  <title>画板 1</title>
  <polygon class="cls-1" points="88.38 95.37 138.96 96.02 134.1 133.61 88.38 95.37"/>
  <polygon class="cls-2" points="157 84.18 146 89 160 115 157 84.18"/>
  <polygon class="cls-3" points="167 84 157 84 160 115 167 84"/>
  <polygon class="cls-3" points="146 89 160 115 139 96 146 89"/>
  <polygon class="cls-2" points="194 95 167 84 160 115 194 95"/>
  <polygon class="cls-3" points="210 118 160 115 194 95 210 118"/>
  <polygon class="cls-2" points="169 139 210 118 160 115 169 139"/>
  <polygon class="cls-3" points="223 160 210 118 169 139 223 160"/>
  <polygon class="cls-4" points="134 134 160 115 139 95 134 134"/>
  <polygon class="cls-5" points="169 139 134 134 160 115 169 139"/>
  <polygon class="cls-2" points="164 164 223 160 169 139 164 164"/>
  <polygon class="cls-3" points="136 153 169 139 134 134 136 153"/>
  <polygon class="cls-6" points="136 153 164 164 169 139 136 153"/>
  <polygon class="cls-3" points="128 180 164 164 136 153 128 180"/>
  <polygon class="cls-1" points="229 180 164 164 223 160 229 180"/>
  <polygon class="cls-5" points="142 204 229 180 164 164 142 204"/>
  <polygon class="cls-4" points="128 180 142 204 164 164 128 180"/>
  <polygon class="cls-7" points="256 215 142 204 229 180 256 215"/>
  <polygon class="cls-5" points="146 236 256 215 142 204 146 236"/>
  <polygon class="cls-7" points="261 236 256 215 146 236 261 236"/>
  <polygon class="cls-5" points="167 273 261 236 146 236 167 273"/>
  <polygon class="cls-7" points="267 265 261 236 167 273 267 265"/>
  <polygon class="cls-5" points="199 307 267 265 167 273 199 307"/>
  <polygon class="cls-7" points="269 296 267 265 199 307 269 296"/>
  <polygon class="cls-5" points="223 330 199 307 269 296 223 330"/>
  <polygon class="cls-7" points="271 326 269 296 223 330 271 326"/>
  <polygon class="cls-5" points="238 352 271 326 223 330 238 352"/>
  <polygon class="cls-7" points="272 364 271 326 238 352 272 364"/>
  <polygon class="cls-5" points="253 371 238 352 272 364 253 371"/>
  <polygon class="cls-7" points="271 389 272 364 253 371 271 389"/>
  <polygon class="cls-8" points="115 208 142 204 128 180 115 208"/>
  <polygon class="cls-4" points="146 236 115 208 142 204 146 236"/>
  <polygon class="cls-8" points="114 236 146 236 115 208 114 236"/>
  <polygon class="cls-4" points="167 273 114 236 146 236 167 273"/>
  <polygon class="cls-8" points="131 293 114 236 167 273 131 293"/>
  <polygon class="cls-4" points="199 307 131 293 167 273 199 307"/>
  <polygon class="cls-8" points="153 317 131 293 199 307 153 317"/>
  <polygon class="cls-4" points="223 330 153 317 199 307 223 330"/>
  <polygon class="cls-8" points="194 350 223 330 153 317 194 350"/>
  <polygon class="cls-4" points="238 352 194 350 223 330 238 352"/>
  <polygon class="cls-3" points="194 350 185 364 153 317 194 350"/>
  <polygon class="cls-6" points="199 371 194 350 185 364 199 371"/>
  <polygon class="cls-3" points="188 379 199 371 185 364 188 379"/>
  <polygon class="cls-6" points="194 389 199 371 188 379 194 389"/>
  <polygon class="cls-3" points="183 397 194 389 188 379 183 397"/>
  <polygon class="cls-6" points="194 402 183 397 194 389 194 402"/>
  <polygon class="cls-3" points="164 413 183 397 194 402 164 413"/>
  <polygon class="cls-6" points="194 402 200 413 179 407.5 194 402"/>
  <polygon class="cls-8" points="238 352 210 364 194 350 238 352"/>
  <polygon class="cls-4" points="253 371 210 364 238 352 253 371"/>
  <polygon class="cls-5" points="220 395 253 371 210 364 220 395"/>
  <polygon class="cls-1" points="271 389 220 395 253 371 271 389"/>
  <polygon class="cls-2" points="223 419 271 389 220 395 223 419"/>
  <polygon class="cls-3" points="223 419 302 416 271 389 223 419"/>
  <polygon class="cls-2" points="223 438 302 416 223 419 223 438"/>
  <polygon class="cls-6" points="312 432 223 438 302 416 312 432"/>
  <polygon class="cls-3" points="223 457 312 432 223 438 223 457"/>
  <polygon class="cls-6" points="322 450 223 457 312 432 322 450"/>
  <polygon class="cls-3" points="223 472 322 450 223 457 223 472"/>
  <polygon class="cls-6" points="329 463 223 472 322 450 329 463"/>
  <polygon class="cls-3" points="222 483 329 463 223 472 222 483"/>
  <polygon class="cls-6" points="332 477 329 463 222 483 332 477"/>
  <polygon class="cls-3" points="222 483 263 494.36 332 477 222 483"/>
  <polygon class="cls-6" points="312 498 263 494 332 477 312 498"/>
</svg>
